<svg version="1.1" xmlns="http://www.w3.org/2000/svg" viewBox="0 0 1132.1111111111106 960.1666666666667" width="3396.333333333332" height="2880.5">
  <!-- svg-source:excalidraw -->
  
  <defs>
    <style class="style-fonts">
      @font-face {
        font-family: "Virgil";
        src: url("https://excalidraw.com/Virgil.woff2");
      }
      @font-face {
        font-family: "Cascadia";
        src: url("https://excalidraw.com/Cascadia.woff2");
      }
    </style>
    
  </defs>
  <rect x="0" y="0" width="1132.1111111111106" height="960.1666666666667" fill="#ffffff"></rect><g stroke-linecap="round" transform="translate(10 205.83333333333331) rotate(0 246.72222222222217 340.3333333333336)"><path d="M32 0 M32 0 C152.31 1.23, 271.56 0.4, 461.44 0 M32 0 C197.79 1.79, 363.08 1.93, 461.44 0 M461.44 0 C482.58 0.79, 495 11.46, 493.44 32 M461.44 0 C482.34 -0.87, 495.06 9.16, 493.44 32 M493.44 32 C494.23 156.98, 494.03 281.03, 493.44 648.67 M493.44 32 C492.38 259.1, 492.38 486.81, 493.44 648.67 M493.44 648.67 C492.66 668.67, 482.37 678.87, 461.44 680.67 M493.44 648.67 C494.68 672.07, 483.69 682.62, 461.44 680.67 M461.44 680.67 C337.32 680.3, 215.05 679.75, 32 680.67 M461.44 680.67 C361.62 681.08, 261.55 680.78, 32 680.67 M32 680.67 C10.54 682.54, 0.14 671.07, 0 648.67 M32 680.67 C11.09 680.29, 0.94 670.26, 0 648.67 M0 648.67 C-0.06 409.81, 0.36 171.41, 0 32 M0 648.67 C0.46 453.09, 0.37 256.87, 0 32 M0 32 C0.98 8.75, 11.58 -1.52, 32 0 M0 32 C1.01 8.62, 12.55 -1.37, 32 0" stroke="#1e1e1e" stroke-width="2" fill="none"></path></g><g stroke-linecap="round" transform="translate(297.111111111111 766.6111111111106) rotate(0 90 40)"><path d="M2.85 7.77 C2.85 7.77, 2.85 7.77, 2.85 7.77 M2.85 7.77 C2.85 7.77, 2.85 7.77, 2.85 7.77 M4.29 18.31 C11.5 9.67, 12.74 4.3, 20.04 0.19 M4.29 18.31 C7.56 13.49, 11.66 9.33, 20.04 0.19 M3.77 31.1 C12.83 26.01, 15.86 16.05, 30.67 0.16 M3.77 31.1 C10.65 24.03, 14.07 16.66, 30.67 0.16 M3.9 43.14 C20.2 32, 29.3 16.02, 41.3 0.12 M3.9 43.14 C12.68 33.49, 23.63 19.69, 41.3 0.12 M4.03 55.18 C16 45.94, 28.21 30.07, 51.93 0.09 M4.03 55.18 C12.61 40.72, 25.64 29.63, 51.93 0.09 M3.51 67.98 C24.14 45.94, 43.11 21.68, 61.9 0.81 M3.51 67.98 C25.41 40.96, 48.2 18.17, 61.9 0.81 M6.93 76.25 C32.53 49.57, 48.63 21.9, 72.53 0.77 M6.93 76.25 C25.26 52.35, 47.04 31.66, 72.53 0.77 M13.62 80.74 C40.9 50.37, 64.94 21.56, 83.16 0.74 M13.62 80.74 C31.27 61.19, 46.51 40.55, 83.16 0.74 M24.25 80.7 C37.46 64.66, 57.98 43.88, 93.79 0.71 M24.25 80.7 C37.28 62.04, 54.94 46.78, 93.79 0.71 M34.88 80.67 C57.41 52.71, 81.99 19.43, 104.42 0.67 M34.88 80.67 C47.74 61.29, 62.51 46.69, 104.42 0.67 M44.85 81.39 C66.4 60.43, 86.54 37.69, 115.05 0.64 M44.85 81.39 C72.59 49.64, 99.97 18.37, 115.05 0.64 M55.48 81.36 C72.95 60.22, 96.45 37.95, 125.03 1.36 M55.48 81.36 C78.35 52.44, 107.17 21.64, 125.03 1.36 M66.11 81.32 C83.91 64.04, 107.4 34.75, 135.66 1.32 M66.11 81.32 C93.32 52.75, 119.41 19.71, 135.66 1.32 M76.74 81.29 C93.54 59.77, 120.76 34.83, 146.29 1.29 M76.74 81.29 C92.34 65.14, 107.43 45.39, 146.29 1.29 M87.37 81.25 C107.64 56.1, 128.55 27.5, 156.92 1.25 M87.37 81.25 C113.64 52.46, 138.08 25.89, 156.92 1.25 M98 81.22 C123.07 51.74, 144.5 28.53, 167.55 1.22 M98 81.22 C114.33 60.05, 133.59 42.86, 167.55 1.22 M107.98 81.94 C122.81 57.73, 150.02 34.13, 174.24 5.71 M107.98 81.94 C127.05 60.56, 145.56 39.71, 174.24 5.71 M118.61 81.9 C135.26 55.96, 157.99 34.75, 180.93 10.21 M118.61 81.9 C140.04 58.23, 163.05 33.02, 180.93 10.21 M129.24 81.87 C144.67 66.69, 154.31 48.37, 183.69 19.23 M129.24 81.87 C145.18 64.23, 164.21 42.84, 183.69 19.23 M139.87 81.83 C151.67 71.26, 161.54 60, 183.82 31.27 M139.87 81.83 C156.12 61.62, 171.49 45.45, 183.82 31.27 M150.5 81.8 C160.01 70.87, 161.11 67.56, 183.3 44.06 M150.5 81.8 C161.12 68.32, 172.73 54.01, 183.3 44.06 M161.78 81.01 C167.6 73.51, 179.04 61.07, 183.43 56.11 M161.78 81.01 C169.12 70.62, 179.82 63.27, 183.43 56.11" stroke="#ffc9c9" stroke-width="1" fill="none"></path><path d="M20 0 M20 0 C61.32 0.82, 105.54 0.13, 160 0 M20 0 C74.46 -1.15, 131.2 1.07, 160 0 M160 0 C175.13 -3.04, 180.05 2.89, 180 20 M160 0 C174.83 -3.85, 179.99 3.36, 180 20 M180 20 C179.76 33.65, 179.68 42.04, 180 60 M180 20 C178.71 27.47, 180.37 37.77, 180 60 M180 60 C179.75 75.05, 176.94 81.22, 160 80 M180 60 C176.31 75.41, 170.06 82.43, 160 80 M160 80 C109.52 79.5, 55.26 81.59, 20 80 M160 80 C112.65 83.59, 67.1 82.77, 20 80 M20 80 C2.7 77.13, 0.1 72.49, 0 60 M20 80 C10.49 76.69, 0.19 73.49, 0 60 M0 60 C2.56 44.5, -1.55 32.43, 0 20 M0 60 C-2.3 44.23, 0.24 30.59, 0 20 M0 20 C-3.87 5.18, 8.54 -3.33, 20 0 M0 20 C-2.55 9.86, 2.3 -0.93, 20 0" stroke="#1e1e1e" stroke-width="2" fill="none"></path></g><g transform="translate(329.54314083523207 771.6111111111106) rotate(0 57.567970275878906 35)"><text x="57.567970275878906" y="0" font-family="Virgil, Segoe UI Emoji" font-size="28px" fill="#1e1e1e" text-anchor="middle" style="white-space: pre;" direction="ltr" dominant-baseline="text-before-edge">Raft </text><text x="57.567970275878906" y="35" font-family="Virgil, Segoe UI Emoji" font-size="28px" fill="#1e1e1e" text-anchor="middle" style="white-space: pre;" direction="ltr" dominant-baseline="text-before-edge">(Leader)</text></g><g stroke-linecap="round" transform="translate(60.55555555555554 285.5555555555556) rotate(0 202 33.5)"><path d="M4.46 3.88 C4.46 3.88, 4.46 3.88, 4.46 3.88 M4.46 3.88 C4.46 3.88, 4.46 3.88, 4.46 3.88 M1.97 18.94 C5.73 13.6, 12.4 3.49, 17.71 0.82 M1.97 18.94 C6.29 11.84, 13.05 8.21, 17.71 0.82 M2.76 30.22 C10.18 24.24, 13.96 12.2, 28.34 0.79 M2.76 30.22 C11.55 22.53, 15.76 15.59, 28.34 0.79 M2.89 42.26 C10.28 33.64, 25.1 18.94, 38.97 0.75 M2.89 42.26 C13.51 32.05, 22.78 18.46, 38.97 0.75 M3.02 54.3 C13.94 45.35, 28.02 29.19, 49.6 0.72 M3.02 54.3 C18.07 34.2, 37.43 16.22, 49.6 0.72 M6.44 62.57 C19.1 46.89, 38.74 31.45, 60.23 0.68 M6.44 62.57 C26.06 40.54, 40.5 22.96, 60.23 0.68 M13.13 67.06 C32.52 49.86, 46.36 30.98, 70.86 0.65 M13.13 67.06 C26.66 49.38, 40.49 32.56, 70.86 0.65 M23.76 67.03 C45.79 44.47, 67.11 12.39, 81.49 0.62 M23.76 67.03 C39.08 49.97, 51.01 36.3, 81.49 0.62 M34.39 67 C49.52 45.68, 70.45 21.29, 92.12 0.58 M34.39 67 C55.52 45.11, 74.93 20.75, 92.12 0.58 M45.02 66.96 C64.26 45.11, 81.84 30.54, 102.75 0.55 M45.02 66.96 C66.44 41.21, 85.98 19.94, 102.75 0.55 M55.65 66.93 C72.28 40.41, 96.18 15.82, 112.73 1.27 M55.65 66.93 C69.38 50.75, 79.84 36.02, 112.73 1.27 M66.28 66.89 C87.34 45.43, 109.01 22.55, 123.36 1.23 M66.28 66.89 C83.66 45.16, 102.74 23.13, 123.36 1.23 M76.91 66.86 C95.4 46.58, 110.57 32.57, 133.99 1.2 M76.91 66.86 C98.06 39.96, 119.42 18.91, 133.99 1.2 M87.54 66.82 C98.35 50.23, 118.23 39.23, 144.62 1.16 M87.54 66.82 C98.89 53.13, 113.45 38.26, 144.62 1.16 M98.17 66.79 C113.76 47.25, 128.81 37.77, 155.25 1.13 M98.17 66.79 C119.44 43.82, 141.5 19.99, 155.25 1.13 M108.8 66.75 C128.17 45.78, 143.3 25.53, 165.88 1.09 M108.8 66.75 C118.62 53.97, 130.92 39.69, 165.88 1.09 M118.77 67.47 C137.27 45.79, 155.34 20.66, 176.51 1.06 M118.77 67.47 C140.93 42.82, 159.61 21.43, 176.51 1.06 M129.41 67.44 C148.9 38.96, 168.89 22.52, 187.14 1.03 M129.41 67.44 C143.9 50.54, 159.21 33.15, 187.14 1.03 M140.04 67.41 C162.41 43, 174.83 24.96, 197.77 0.99 M140.04 67.41 C154.18 50.95, 169.21 36.13, 197.77 0.99 M150.67 67.37 C174.41 44.12, 195.61 15.04, 208.4 0.96 M150.67 67.37 C166.25 48.06, 184.04 31.93, 208.4 0.96 M161.3 67.34 C177.19 52.11, 192.7 35.01, 219.03 0.92 M161.3 67.34 C181.39 45.71, 197.57 23.24, 219.03 0.92 M171.93 67.3 C190.25 47.75, 207.9 19.93, 229.66 0.89 M171.93 67.3 C189.4 42.55, 210.94 19.08, 229.66 0.89 M182.56 67.27 C199.6 48.1, 213.43 35.1, 240.29 0.85 M182.56 67.27 C194.37 52.65, 204.56 41.39, 240.29 0.85 M193.19 67.23 C215.06 42.35, 238.04 19.63, 250.92 0.82 M193.19 67.23 C209.67 47.46, 225.96 29.24, 250.92 0.82 M203.82 67.2 C225.56 38.66, 249.1 13.44, 261.55 0.78 M203.82 67.2 C222.45 47.61, 239.19 28.42, 261.55 0.78 M214.45 67.16 C230.72 51.86, 245.93 27.19, 272.18 0.75 M214.45 67.16 C234.02 47.35, 252.63 22.25, 272.18 0.75 M225.08 67.13 C249.37 40.83, 264.35 24.17, 282.81 0.71 M225.08 67.13 C242.87 45.26, 261.61 24.22, 282.81 0.71 M235.71 67.09 C253.48 37.89, 279.97 14.13, 293.44 0.68 M235.71 67.09 C258.85 42.46, 279.93 15.67, 293.44 0.68 M246.34 67.06 C267.02 46.59, 289.55 20.04, 303.41 1.4 M246.34 67.06 C258.21 51.17, 270.18 40.47, 303.41 1.4 M256.97 67.03 C266.28 51.18, 280.34 34.99, 314.04 1.37 M256.97 67.03 C279.86 40.25, 299.6 15.19, 314.04 1.37 M267.6 66.99 C289.6 43.89, 301.1 21.49, 324.67 1.33 M267.6 66.99 C291.24 41.11, 312.22 14.26, 324.67 1.33 M278.23 66.96 C299.27 48.48, 312.03 28.11, 335.3 1.3 M278.23 66.96 C299.31 39.22, 321.88 16.18, 335.3 1.3 M288.86 66.92 C300.99 54.63, 312.62 33.73, 345.93 1.26 M288.86 66.92 C308.97 43.59, 326.98 19.85, 345.93 1.26 M299.49 66.89 C317.08 47.27, 339.45 18.66, 356.56 1.23 M299.49 66.89 C312.23 51.4, 325.25 34.17, 356.56 1.23 M309.46 67.61 C328.35 42.19, 354.15 19.77, 367.19 1.19 M309.46 67.61 C323.61 52.67, 334.91 39.41, 367.19 1.19 M320.09 67.57 C337.96 47.92, 347.96 29.67, 377.82 1.16 M320.09 67.57 C340.58 42.77, 361.5 23.45, 377.82 1.16 M330.72 67.54 C351.85 49.68, 371.44 25.87, 388.45 1.12 M330.72 67.54 C350.53 44.59, 376.11 18.57, 388.45 1.12 M341.35 67.5 C363.03 42.85, 378.42 24.52, 395.8 4.86 M341.35 67.5 C354.27 54.71, 362.99 40.49, 395.8 4.86 M351.98 67.47 C369.24 48.1, 393.92 26.34, 403.81 7.85 M351.98 67.47 C366.3 47.77, 382.4 32.96, 403.81 7.85 M362.61 67.44 C379.44 48.79, 388.35 33.29, 408.54 14.61 M362.61 67.44 C379.71 46.59, 398.66 27.54, 408.54 14.61 M373.24 67.4 C384.91 57.9, 387.52 47.01, 408.67 26.65 M373.24 67.4 C384.12 56.87, 394.25 44.95, 408.67 26.65 M383.87 67.37 C392.78 57.12, 402.13 47.95, 408.8 38.69 M383.87 67.37 C390.11 59.18, 397.7 51.3, 408.8 38.69 M391.22 71.11 C393.31 64.71, 399.14 55.32, 405 55.26 M391.22 71.11 C396.34 65.38, 398.67 59.13, 405 55.26" stroke="#ffec99" stroke-width="1" fill="none"></path><path d="M16.75 0 M16.75 0 C122.99 0.12, 227.46 0.54, 387.25 0 M16.75 0 C96.79 4.49, 177.19 5.21, 387.25 0 M387.25 0 C400.85 -0.16, 406.32 9.05, 404 16.75 M387.25 0 C394.83 2.5, 401.43 2.93, 404 16.75 M404 16.75 C402.06 26.49, 400.12 29.22, 404 50.25 M404 16.75 C403.06 25.15, 403.61 36.92, 404 50.25 M404 50.25 C406.76 58.44, 400.13 69.66, 387.25 67 M404 50.25 C400.76 60.05, 402.22 66.53, 387.25 67 M387.25 67 C285.08 66.22, 185.58 66.01, 16.75 67 M387.25 67 C276.14 64.71, 164.79 63.89, 16.75 67 M16.75 67 C9.49 65.14, 0.52 60.84, 0 50.25 M16.75 67 C1.75 68.31, 4.27 60.28, 0 50.25 M0 50.25 C0.34 44.85, -2.07 31.49, 0 16.75 M0 50.25 C0.53 38.01, 1.49 25.35, 0 16.75 M0 16.75 C-3.72 4.59, 6.8 1.43, 16.75 0 M0 16.75 C0.14 8.33, 1.36 -4.02, 16.75 0" stroke="#1e1e1e" stroke-width="2" fill="none"></path></g><g transform="translate(203.5455839369032 301.5555555555556) rotate(0 59.009971618652344 17.5)"><text x="59.009971618652344" y="0" font-family="Virgil, Segoe UI Emoji" font-size="28px" fill="#1e1e1e" text-anchor="middle" style="white-space: pre;" direction="ltr" dominant-baseline="text-before-edge">KVServer</text></g><g stroke-linecap="round" transform="translate(48.1111111111112 706.1111111111113) rotate(0 82 33.5)"><path d="M4.46 3.88 C4.46 3.88, 4.46 3.88, 4.46 3.88 M4.46 3.88 C4.46 3.88, 4.46 3.88, 4.46 3.88 M3.94 16.67 C8.52 15.23, 10.42 9.66, 17.71 0.82 M3.94 16.67 C6.03 11.5, 9.78 7.24, 17.71 0.82 M4.07 28.71 C8.61 22.1, 14.38 12.6, 28.34 0.79 M4.07 28.71 C11.45 21.04, 16.16 12.61, 28.34 0.79 M4.2 40.75 C16.28 23.85, 27.74 11.63, 38.97 0.75 M4.2 40.75 C16.12 28.37, 25.65 15.96, 38.97 0.75 M1.71 55.81 C16.6 41.66, 23.49 28.51, 49.6 0.72 M1.71 55.81 C21.78 36.07, 38.21 13.16, 49.6 0.72 M5.78 63.33 C19.91 44.77, 40.33 23.82, 59.58 1.44 M5.78 63.33 C21.73 44.63, 37.12 26.35, 59.58 1.44 M11.82 68.57 C27.82 47.48, 52.44 27.95, 70.21 1.4 M11.82 68.57 C29.34 45.36, 46.42 26.29, 70.21 1.4 M22.45 68.54 C37.98 51.52, 59.16 30.43, 80.84 1.37 M22.45 68.54 C38.47 49.45, 54.86 32.08, 80.84 1.37 M33.08 68.5 C51.96 45.09, 68.07 23.72, 91.47 1.34 M33.08 68.5 C52.09 49.22, 69.12 26.78, 91.47 1.34 M43.71 68.47 C61.03 48.25, 85.29 27.21, 102.1 1.3 M43.71 68.47 C63.9 45.58, 80.95 24.03, 102.1 1.3 M54.34 68.44 C74.03 39.69, 103.12 14.35, 112.73 1.27 M54.34 68.44 C72.71 48.82, 90.26 28.99, 112.73 1.27 M64.97 68.4 C80.54 49.64, 97.53 29.3, 122.7 1.99 M64.97 68.4 C79.6 53.18, 94.12 37.67, 122.7 1.99 M74.94 69.12 C94.2 51.99, 109.29 26.31, 133.33 1.95 M74.94 69.12 C96.69 49.29, 112 27.66, 133.33 1.95 M85.57 69.09 C107.43 48.8, 120.56 25.71, 143.96 1.92 M85.57 69.09 C108.64 46.24, 130.29 17.52, 143.96 1.92 M96.2 69.05 C121.97 44.24, 140.5 17.73, 155.25 1.13 M96.2 69.05 C112.32 49.22, 127.11 32.11, 155.25 1.13 M106.83 69.02 C117.87 54.11, 134.48 41.78, 161.94 5.62 M106.83 69.02 C120.02 51.65, 136.27 35.42, 161.94 5.62 M117.46 68.98 C125.3 58.67, 140.44 45.59, 165.36 13.89 M117.46 68.98 C135.83 49.88, 154.4 26.4, 165.36 13.89 M128.09 68.95 C138.32 56.56, 150.16 45.33, 164.83 26.69 M128.09 68.95 C133.38 60.98, 141.23 53.32, 164.83 26.69 M138.72 68.91 C149.29 62.21, 156.07 50.46, 164.97 38.73 M138.72 68.91 C148.23 57.04, 156.2 47.89, 164.97 38.73 M149.35 68.88 C155.1 66.5, 153.75 59.25, 164.44 51.52 M149.35 68.88 C155.04 63.76, 160.39 57.91, 164.44 51.52" stroke="#b2f2bb" stroke-width="1" fill="none"></path><path d="M16.75 0 M16.75 0 C56.53 -0.21, 102.91 -4.3, 147.25 0 M16.75 0 C58.83 -3.42, 104.87 -0.4, 147.25 0 M147.25 0 C161.39 -3.41, 162.36 5.13, 164 16.75 M147.25 0 C155.62 -1.67, 164.91 9.48, 164 16.75 M164 16.75 C167.72 24.76, 167.27 40.27, 164 50.25 M164 16.75 C165.03 30.26, 163.6 39.18, 164 50.25 M164 50.25 C163.75 61.19, 159.06 69.45, 147.25 67 M164 50.25 C163.95 65.72, 155.54 68.07, 147.25 67 M147.25 67 C115.7 70.1, 74.22 68.35, 16.75 67 M147.25 67 C120.4 63.38, 93.42 65.19, 16.75 67 M16.75 67 C6.07 66.61, 1.93 60.94, 0 50.25 M16.75 67 C3.97 63.3, -0.95 64.75, 0 50.25 M0 50.25 C0.85 41.84, 2.16 37.53, 0 16.75 M0 50.25 C-0.88 40.23, 2.25 26.72, 0 16.75 M0 16.75 C-1.53 9.08, 6.16 3.22, 16.75 0 M0 16.75 C3.06 7.21, 5.07 3, 16.75 0" stroke="#1e1e1e" stroke-width="2" fill="none"></path></g><g transform="translate(80.78914303249792 722.1111111111113) rotate(0 49.32196807861328 17.5)"><text x="49.32196807861328" y="0" font-family="Virgil, Segoe UI Emoji" font-size="28px" fill="#1e1e1e" text-anchor="middle" style="white-space: pre;" direction="ltr" dominant-baseline="text-before-edge">applyCh</text></g><g stroke-linecap="round" transform="translate(51.1111111111112 486.11111111111126) rotate(0 78 33.5)"><path d="M4.46 3.88 C4.46 3.88, 4.46 3.88, 4.46 3.88 M4.46 3.88 C4.46 3.88, 4.46 3.88, 4.46 3.88 M3.94 16.67 C5.61 11.42, 8.56 6.5, 17.71 0.82 M3.94 16.67 C8.78 10.67, 12.8 7.57, 17.71 0.82 M4.07 28.71 C7.2 20.02, 19.61 14.69, 28.34 0.79 M4.07 28.71 C9.5 20.05, 16.06 14.47, 28.34 0.79 M4.2 40.75 C12.71 30.32, 28.24 16.9, 38.97 0.75 M4.2 40.75 C14.81 30.07, 23.81 20.96, 38.97 0.75 M1.71 55.81 C19.04 31.39, 35.51 8.89, 49.6 0.72 M1.71 55.81 C18.8 37.25, 36.63 16.1, 49.6 0.72 M5.78 63.33 C22.95 40.5, 49.57 11.68, 59.58 1.44 M5.78 63.33 C17.94 49.81, 31.14 36.67, 59.58 1.44 M11.82 68.57 C33.24 48.31, 47.96 25.55, 70.21 1.4 M11.82 68.57 C26.3 52.08, 39.19 37.86, 70.21 1.4 M22.45 68.54 C40.01 50.5, 59.3 29.33, 80.84 1.37 M22.45 68.54 C37.69 50.58, 49.42 34.33, 80.84 1.37 M33.08 68.5 C48.72 49.09, 69.39 30.8, 91.47 1.34 M33.08 68.5 C51.82 46.69, 73.52 22.72, 91.47 1.34 M43.71 68.47 C63.51 42.54, 89.53 11.02, 102.1 1.3 M43.71 68.47 C58.72 52.09, 69.96 34.06, 102.1 1.3 M54.34 68.44 C70.6 52.37, 92.57 25.9, 112.73 1.27 M54.34 68.44 C67.13 53.52, 80.19 40.18, 112.73 1.27 M64.97 68.4 C87.43 44.81, 102.32 22.99, 122.7 1.99 M64.97 68.4 C79.6 50.29, 96.46 32.38, 122.7 1.99 M74.94 69.12 C98.5 44.59, 118.34 15.3, 133.33 1.95 M74.94 69.12 C92.22 48.74, 110.14 26.07, 133.33 1.95 M85.57 69.09 C111.05 43.87, 130.6 18.56, 143.96 1.92 M85.57 69.09 C107.01 46.03, 129.94 17.72, 143.96 1.92 M96.2 69.05 C113.14 47.18, 137.27 22.3, 151.97 4.9 M96.2 69.05 C117.71 43.67, 140.49 18.22, 151.97 4.9 M106.83 69.02 C124.9 49.52, 134.84 35.43, 156.04 12.41 M106.83 69.02 C119.57 54.22, 130.14 41.79, 156.04 12.41 M117.46 68.98 C126.64 52.82, 141.34 39.75, 161.42 18.42 M117.46 68.98 C127.87 58.18, 137.93 42.2, 161.42 18.42 M128.09 68.95 C135.79 58.19, 144.18 48.66, 161.55 30.46 M128.09 68.95 C138 55.68, 149.37 44.55, 161.55 30.46 M140.04 67.41 C146.7 61.36, 151.01 55.63, 161.03 43.25 M140.04 67.41 C147.09 58.69, 156.9 49.45, 161.03 43.25" stroke="#d0bfff" stroke-width="1" fill="none"></path><path d="M16.75 0 M16.75 0 C57.94 -3.35, 97.81 -3.34, 139.25 0 M16.75 0 C60.06 2, 106.36 2.21, 139.25 0 M139.25 0 C151.44 2.05, 157.31 7.91, 156 16.75 M139.25 0 C151.6 3.81, 157.76 2.43, 156 16.75 M156 16.75 C157.55 25.75, 158.82 35.17, 156 50.25 M156 16.75 C157.81 22.25, 155.5 30.93, 156 50.25 M156 50.25 C153.57 59.96, 151.21 70.39, 139.25 67 M156 50.25 C158.4 60.63, 151.21 71.41, 139.25 67 M139.25 67 C116.27 64.95, 87.79 69.69, 16.75 67 M139.25 67 C92.27 65.3, 45.87 66.64, 16.75 67 M16.75 67 C5.54 70.74, -2.5 62.34, 0 50.25 M16.75 67 C4.12 65.85, 2.29 65.38, 0 50.25 M0 50.25 C-3.26 39.99, -2.84 27.12, 0 16.75 M0 50.25 C0.29 42.41, 1.01 34.73, 0 16.75 M0 16.75 C-1.41 2.37, 4.75 2.9, 16.75 0 M0 16.75 C-2.59 2.56, 6.81 0.47, 16.75 0" stroke="#1e1e1e" stroke-width="2" fill="none"></path></g><g transform="translate(84.3391384548612 502.11111111111126) rotate(0 44.77197265625 17.5)"><text x="44.77197265625" y="0" font-family="Virgil, Segoe UI Emoji" font-size="28px" fill="#1e1e1e" text-anchor="middle" style="white-space: pre;" direction="ltr" dominant-baseline="text-before-edge">waitCh</text></g><g stroke-linecap="round" transform="translate(598.222222222222 522.4444444444446) rotate(0 82 33.5)"><path d="M4.46 3.88 C4.46 3.88, 4.46 3.88, 4.46 3.88 M4.46 3.88 C4.46 3.88, 4.46 3.88, 4.46 3.88 M3.94 16.67 C6.16 12.93, 9.38 6.35, 17.71 0.82 M3.94 16.67 C8.48 12.16, 10.56 6.77, 17.71 0.82 M4.07 28.71 C12.2 16.52, 19.72 8.84, 28.34 0.79 M4.07 28.71 C12.91 20.08, 19.35 11.22, 28.34 0.79 M4.2 40.75 C15.77 29.89, 19.58 20.28, 38.97 0.75 M4.2 40.75 C19.25 26.69, 30.82 9.37, 38.97 0.75 M1.71 55.81 C13.95 39.43, 32.4 20.76, 49.6 0.72 M1.71 55.81 C15.95 39.27, 29.52 23.08, 49.6 0.72 M5.78 63.33 C20.31 43.89, 43.47 26.03, 59.58 1.44 M5.78 63.33 C21.9 41.8, 37.57 24.36, 59.58 1.44 M11.82 68.57 C27.35 51.55, 48.53 30.46, 70.21 1.4 M11.82 68.57 C27.84 49.48, 44.23 32.11, 70.21 1.4 M22.45 68.54 C41.33 45.12, 57.44 23.75, 80.84 1.37 M22.45 68.54 C41.46 49.26, 58.49 26.81, 80.84 1.37 M33.08 68.5 C50.4 48.28, 74.66 27.24, 91.47 1.34 M33.08 68.5 C53.27 45.62, 70.32 24.07, 91.47 1.34 M43.71 68.47 C63.4 39.72, 92.49 14.39, 102.1 1.3 M43.71 68.47 C62.08 48.86, 79.63 29.03, 102.1 1.3 M54.34 68.44 C70.1 49.46, 87.29 28.9, 112.73 1.27 M54.34 68.44 C69.12 53.03, 83.8 37.34, 112.73 1.27 M64.97 68.4 C84.02 51.5, 98.9 26.06, 122.7 1.99 M64.97 68.4 C86.49 48.81, 101.59 27.43, 122.7 1.99 M74.94 69.12 C96.8 48.83, 109.93 25.74, 133.33 1.95 M74.94 69.12 C98.01 46.27, 119.66 17.55, 133.33 1.95 M85.57 69.09 C111.09 44.56, 129.38 18.34, 143.96 1.92 M85.57 69.09 C101.52 49.46, 116.12 32.56, 143.96 1.92 M96.2 69.05 C108.21 53.1, 125.71 39.75, 155.25 1.13 M96.2 69.05 C110.41 50.52, 127.67 33.14, 155.25 1.13 M106.83 69.02 C116.2 56.99, 132.95 42.07, 161.94 5.62 M106.83 69.02 C128.06 46.81, 149.47 20.07, 161.94 5.62 M117.46 68.98 C130.91 52.97, 145.9 38.14, 165.36 13.89 M117.46 68.98 C124.8 58.6, 134.93 48.32, 165.36 13.89 M128.09 68.95 C141.5 58.93, 151.22 43.8, 164.83 26.69 M128.09 68.95 C141.13 52.79, 152.73 39.46, 164.83 26.69 M138.72 68.91 C146.79 64.14, 147.7 54.29, 164.97 38.73 M138.72 68.91 C148.24 59.25, 157.43 48.98, 164.97 38.73 M149.35 68.88 C151.24 63.9, 160.02 54.15, 164.44 51.52 M149.35 68.88 C153.04 61.19, 160.53 58.41, 164.44 51.52" stroke="#b2f2bb" stroke-width="1" fill="none"></path><path d="M16.75 0 M16.75 0 C65.15 -1.36, 113.01 1.86, 147.25 0 M16.75 0 C67.29 2.36, 115.25 2.14, 147.25 0 M147.25 0 C158.34 2.16, 161.99 4.42, 164 16.75 M147.25 0 C161.57 3.79, 163.85 2.61, 164 16.75 M164 16.75 C166.41 26.55, 167.7 33.94, 164 50.25 M164 16.75 C164.78 29.3, 164.69 36.88, 164 50.25 M164 50.25 C164.05 57.64, 159.72 63.65, 147.25 67 M164 50.25 C163.99 58.11, 158.1 67.86, 147.25 67 M147.25 67 C106.04 66.85, 62.57 67.43, 16.75 67 M147.25 67 C99.17 65.49, 49.89 66.14, 16.75 67 M16.75 67 C9.19 68.22, -3.21 63.22, 0 50.25 M16.75 67 C2.31 69.43, 3.94 58.23, 0 50.25 M0 50.25 C2.63 44.14, 0.83 32.27, 0 16.75 M0 50.25 C1.15 38.96, -1.85 24.34, 0 16.75 M0 16.75 C0.1 4.74, 8.91 -2.88, 16.75 0 M0 16.75 C0.19 5.74, 7.57 -2.25, 16.75 0" stroke="#1e1e1e" stroke-width="2" fill="none"></path></g><g transform="translate(630.9002541436087 538.4444444444446) rotate(0 49.32196807861328 17.5)"><text x="49.32196807861328" y="0" font-family="Virgil, Segoe UI Emoji" font-size="28px" fill="#1e1e1e" text-anchor="middle" style="white-space: pre;" direction="ltr" dominant-baseline="text-before-edge">applyCh</text></g><g stroke-linecap="round" transform="translate(599.4444444444446 293.5555555555556) rotate(0 82 33.5)"><path d="M4.46 3.88 C4.46 3.88, 4.46 3.88, 4.46 3.88 M4.46 3.88 C4.46 3.88, 4.46 3.88, 4.46 3.88 M3.94 16.67 C6.21 8.94, 14.81 9, 17.71 0.82 M3.94 16.67 C9.44 12.5, 13.45 7.47, 17.71 0.82 M4.07 28.71 C10.72 21.41, 21.04 17.05, 28.34 0.79 M4.07 28.71 C9.79 18.82, 16.52 13.4, 28.34 0.79 M4.2 40.75 C15.9 29.21, 22.87 24.96, 38.97 0.75 M4.2 40.75 C16.83 28.71, 26.51 11.91, 38.97 0.75 M1.71 55.81 C18.06 40.67, 35.33 19.9, 49.6 0.72 M1.71 55.81 C18.98 35.8, 34.77 15.77, 49.6 0.72 M5.78 63.33 C21.16 44.63, 40.15 25.11, 59.58 1.44 M5.78 63.33 C18.34 51.21, 28.97 35.71, 59.58 1.44 M11.82 68.57 C32.67 38.96, 56.69 15.01, 70.21 1.4 M11.82 68.57 C24.88 54.64, 38.8 39.09, 70.21 1.4 M22.45 68.54 C37.56 54.85, 48.59 39.6, 80.84 1.37 M22.45 68.54 C40.78 48.14, 56.75 25.99, 80.84 1.37 M33.08 68.5 C52.65 42.48, 68.35 23.63, 91.47 1.34 M33.08 68.5 C48.2 55.85, 57.5 40.04, 91.47 1.34 M43.71 68.47 C57.13 52.91, 73.14 37.98, 102.1 1.3 M43.71 68.47 C64.29 42.28, 86.04 17.66, 102.1 1.3 M54.34 68.44 C70.94 50.42, 88.21 29.09, 112.73 1.27 M54.34 68.44 C72.16 47.04, 88.18 25.75, 112.73 1.27 M64.97 68.4 C88.79 40.66, 108.74 22.03, 122.7 1.99 M64.97 68.4 C88.07 42.2, 110.55 19.07, 122.7 1.99 M74.94 69.12 C98.93 47.89, 113.01 26.12, 133.33 1.95 M74.94 69.12 C98.38 43.93, 120.74 19.65, 133.33 1.95 M85.57 69.09 C104.44 48.88, 123.16 24.43, 143.96 1.92 M85.57 69.09 C99.91 50.16, 116.2 33.63, 143.96 1.92 M96.2 69.05 C111.1 48.17, 130.49 26.8, 155.25 1.13 M96.2 69.05 C108.35 53.82, 122.57 35.21, 155.25 1.13 M106.83 69.02 C127.79 47.45, 138.14 26.36, 161.94 5.62 M106.83 69.02 C127.81 44.64, 149.01 21.13, 161.94 5.62 M117.46 68.98 C127.13 56.59, 141 34.23, 165.36 13.89 M117.46 68.98 C131.99 52.8, 146.17 37.33, 165.36 13.89 M128.09 68.95 C141.8 56.57, 154.47 41.91, 164.83 26.69 M128.09 68.95 C135.22 58.27, 144.1 49.78, 164.83 26.69 M138.72 68.91 C149.21 59.82, 158.07 50.91, 164.97 38.73 M138.72 68.91 C148.26 59.67, 157.72 46.03, 164.97 38.73 M149.35 68.88 C155.44 61.87, 161.54 55.02, 164.44 51.52 M149.35 68.88 C153.92 63.24, 154.86 60.98, 164.44 51.52" stroke="#ffec99" stroke-width="1" fill="none"></path><path d="M16.75 0 M16.75 0 C51.36 1.57, 78.52 0.17, 147.25 0 M16.75 0 C68.36 -1.13, 119.05 -2.79, 147.25 0 M147.25 0 C161.16 3.3, 163.87 2.99, 164 16.75 M147.25 0 C158.13 -0.26, 164.74 8.4, 164 16.75 M164 16.75 C165.55 25.49, 163.63 38.77, 164 50.25 M164 16.75 C164.33 27.8, 164.95 40.95, 164 50.25 M164 50.25 C163.99 58.54, 158.14 67.75, 147.25 67 M164 50.25 C164.56 60.97, 160.64 66.45, 147.25 67 M147.25 67 C115.59 64.21, 75.5 67.52, 16.75 67 M147.25 67 C108.56 68.73, 64.66 69.03, 16.75 67 M16.75 67 C2.74 69.11, 3.42 58.65, 0 50.25 M16.75 67 C3.82 71.02, 0.66 65.11, 0 50.25 M0 50.25 C2.37 37.2, 3.3 27.74, 0 16.75 M0 50.25 C0.72 38.19, 2.33 25.54, 0 16.75 M0 16.75 C0.16 5.72, 7.31 -1.95, 16.75 0 M0 16.75 C-1.12 8.08, 3.54 -2.23, 16.75 0" stroke="#1e1e1e" stroke-width="2" fill="none"></path></g><g transform="translate(622.4344728257922 309.5555555555556) rotate(0 59.009971618652344 17.5)"><text x="59.009971618652344" y="0" font-family="Virgil, Segoe UI Emoji" font-size="28px" fill="#1e1e1e" text-anchor="middle" style="white-space: pre;" direction="ltr" dominant-baseline="text-before-edge">KVServer</text></g><g stroke-linecap="round" transform="translate(596.6666666666663 766.5) rotate(0 90 40)"><path d="M2.85 7.77 C2.85 7.77, 2.85 7.77, 2.85 7.77 M2.85 7.77 C2.85 7.77, 2.85 7.77, 2.85 7.77 M4.29 18.31 C5.3 11.85, 15.69 8.85, 20.04 0.19 M4.29 18.31 C7.34 12.34, 11.51 9.51, 20.04 0.19 M3.77 31.1 C9.56 23.72, 22.4 13.39, 30.67 0.16 M3.77 31.1 C12.15 22.81, 18.98 16.19, 30.67 0.16 M3.9 43.14 C17.18 23.49, 29.59 5.67, 41.3 0.12 M3.9 43.14 C16.98 28.95, 30.94 12.27, 41.3 0.12 M4.03 55.18 C18.99 35.02, 43.32 8.82, 51.93 0.09 M4.03 55.18 C14.92 43.17, 26.79 31.55, 51.93 0.09 M3.51 67.98 C24.93 47.72, 39.65 24.95, 61.9 0.81 M3.51 67.98 C17.99 51.48, 30.88 37.26, 61.9 0.81 M6.93 76.25 C26.69 55.92, 48.04 32.37, 72.53 0.77 M6.93 76.25 C23.84 56.15, 37.39 37.81, 72.53 0.77 M13.62 80.74 C32.67 57.53, 56.56 35.52, 83.16 0.74 M13.62 80.74 C36.18 54.73, 61.55 26.53, 83.16 0.74 M24.25 80.7 C48.44 49.55, 78.9 12.94, 93.79 0.71 M24.25 80.7 C41.87 61.1, 55.79 39.98, 93.79 0.71 M34.88 80.67 C54.87 60.78, 80.33 30.3, 104.42 0.67 M34.88 80.67 C50.2 62.89, 65.63 46.82, 104.42 0.67 M44.85 81.39 C71.39 52.8, 90.55 26.08, 115.05 0.64 M44.85 81.39 C62.71 59.6, 82.84 37.93, 115.05 0.64 M55.48 81.36 C83.06 51.99, 106.97 18.02, 125.03 1.36 M55.48 81.36 C76.15 56.99, 97.66 30.19, 125.03 1.36 M66.11 81.32 C95.85 51.14, 119.86 20.71, 135.66 1.32 M66.11 81.32 C91.64 53.56, 118.77 20.41, 135.66 1.32 M76.74 81.29 C98.61 53.27, 127.95 22.4, 146.29 1.29 M76.74 81.29 C103.52 49.72, 131.68 18.08, 146.29 1.29 M87.37 81.25 C111.96 54.89, 128.18 33.57, 156.92 1.25 M87.37 81.25 C105 60.71, 120.43 42.7, 156.92 1.25 M98 81.22 C113.85 57.46, 134.89 37.1, 167.55 1.22 M98 81.22 C114.42 63.06, 130.64 40, 167.55 1.22 M107.98 81.94 C123.88 61.35, 141.05 41.71, 174.24 5.71 M107.98 81.94 C127.49 57.54, 148.38 35.46, 174.24 5.71 M118.61 81.9 C134.64 65.57, 148.3 49.08, 180.93 10.21 M118.61 81.9 C141.25 54.22, 167.02 26.62, 180.93 10.21 M129.24 81.87 C148.41 57.29, 165.54 36.36, 183.69 19.23 M129.24 81.87 C147.43 60.37, 168.87 37.7, 183.69 19.23 M139.87 81.83 C155.98 66.12, 171.28 50.16, 183.82 31.27 M139.87 81.83 C148.19 70.56, 159.16 59.5, 183.82 31.27 M150.5 81.8 C161.15 75.98, 162.48 62.88, 183.3 44.06 M150.5 81.8 C160.82 72.84, 170.93 59.92, 183.3 44.06 M161.78 81.01 C171.56 73.44, 177.21 63.61, 183.43 56.11 M161.78 81.01 C167.25 72.61, 173.05 67.04, 183.43 56.11" stroke="#ffc9c9" stroke-width="1" fill="none"></path><path d="M20 0 M20 0 C68 -2.47, 109.44 -1.24, 160 0 M20 0 C59.41 -3.93, 97.04 -4.3, 160 0 M160 0 C174.63 -3.35, 179.99 3.79, 180 20 M160 0 C173.01 0.86, 180.56 6.22, 180 20 M180 20 C176.69 33.1, 182.81 45.61, 180 60 M180 20 C180.09 30.23, 182.01 39.35, 180 60 M180 60 C176.79 75.14, 170.49 82.11, 160 80 M180 60 C183.94 70.15, 171.57 84.02, 160 80 M160 80 C117.41 81.42, 74.59 81.09, 20 80 M160 80 C103.65 79.89, 51.32 80.91, 20 80 M20 80 C9.99 77.12, 0.16 73.47, 0 60 M20 80 C8.65 77.75, -1.12 75.83, 0 60 M0 60 C2.63 51.97, -0.65 35.82, 0 20 M0 60 C-2.21 50.31, 0.66 40.44, 0 20 M0 20 C-2.22 9.45, 2.87 -0.81, 20 0 M0 20 C-2.42 3.48, 10.39 -2.32, 20 0" stroke="#1e1e1e" stroke-width="2" fill="none"></path></g><g transform="translate(613.0407053629554 771.5) rotate(0 73.62596130371094 35)"><text x="73.62596130371094" y="0" font-family="Virgil, Segoe UI Emoji" font-size="28px" fill="#1e1e1e" text-anchor="middle" style="white-space: pre;" direction="ltr" dominant-baseline="text-before-edge">Raft </text><text x="73.62596130371094" y="35" font-family="Virgil, Segoe UI Emoji" font-size="28px" fill="#1e1e1e" text-anchor="middle" style="white-space: pre;" direction="ltr" dominant-baseline="text-before-edge">(Follower2)</text></g><g stroke-linecap="round" transform="translate(277.88888888888846 739.8333333333333) rotate(0 422.1111111111111 105.16666666666674)"><path d="M32 0 M32 0 C226.41 1.52, 422.1 0.15, 812.22 0 M812.22 0 C832.77 1.94, 844.4 8.72, 844.22 32 M844.22 32 C844.2 69.41, 845.18 107.44, 844.22 178.33 M844.22 178.33 C845.81 200.54, 832.45 209.84, 812.22 210.33 M812.22 210.33 C585.77 208.13, 358.4 207.52, 32 210.33 M32 210.33 C9.68 209.59, -0.12 199.04, 0 178.33 M0 178.33 C-2.46 135.62, -1.45 94.97, 0 32 M0 32 C0.56 11.69, 9.27 -1.06, 32 0" stroke="#fa5252" stroke-width="2.5" fill="none" stroke-dasharray="8 10"></path></g><g stroke-linecap="round" transform="translate(549.6111111111111 208.72222222222223) rotate(0 126.33333333333326 337.5)"><path d="M32 0 M32 0 C105.23 0.31, 177.42 -0.11, 220.67 0 M32 0 C71.09 -0.28, 111.42 -0.25, 220.67 0 M220.67 0 C243.73 -0.73, 251.02 9.21, 252.67 32 M220.67 0 C244.26 1.67, 254.06 8.82, 252.67 32 M252.67 32 C250.87 223, 251.6 413.13, 252.67 643 M252.67 32 C252.54 202.37, 252.36 373.23, 252.67 643 M252.67 643 C252.98 662.8, 242.8 675.16, 220.67 675 M252.67 643 C253.98 663.63, 243.12 673.84, 220.67 675 M220.67 675 C167.95 673.54, 116.32 673.72, 32 675 M220.67 675 C157.65 673.68, 95.15 672.38, 32 675 M32 675 C11.35 675.35, -0.03 663.35, 0 643 M32 675 C10.46 676.25, 0.28 662.6, 0 643 M0 643 C-1.52 429.36, -2.83 215.66, 0 32 M0 643 C2.67 465.71, 2.29 288.08, 0 32 M0 32 C0.91 9.73, 10.41 -0.59, 32 0 M0 32 C-1.39 10.56, 10.45 -2.11, 32 0" stroke="#1e1e1e" stroke-width="2" fill="none"></path></g><g transform="translate(28.418466356065437 225.1666666666668) rotate(0 47.025978088378906 17.5)"><text x="47.025978088378906" y="0" font-family="Virgil, Segoe UI Emoji" font-size="28px" fill="#e03131" text-anchor="middle" style="white-space: pre;" direction="ltr" dominant-baseline="text-before-edge">Leader</text></g><g transform="translate(574.8840255737307 227.00000000000006) rotate(0 53.11597442626953 17.5)"><text x="53.11597442626953" y="0" font-family="Virgil, Segoe UI Emoji" font-size="28px" fill="#e03131" text-anchor="middle" style="white-space: pre;" direction="ltr" dominant-baseline="text-before-edge">Follower</text></g><g stroke-linecap="round" transform="translate(52.22222222222206 10) rotate(0 202 33.5)"><path d="M4.46 3.88 C4.46 3.88, 4.46 3.88, 4.46 3.88 M4.46 3.88 C4.46 3.88, 4.46 3.88, 4.46 3.88 M1.97 18.94 C3.35 17.83, 9.35 13.16, 17.71 0.82 M1.97 18.94 C5.11 15.52, 8.33 9.91, 17.71 0.82 M2.76 30.22 C11.99 21.86, 16.92 13.69, 28.34 0.79 M2.76 30.22 C9.46 20.31, 17.22 10.77, 28.34 0.79 M2.89 42.26 C17.33 25.15, 28.79 7.8, 38.97 0.75 M2.89 42.26 C10 32.23, 16.57 25.13, 38.97 0.75 M3.02 54.3 C14.98 35.69, 31.93 21.8, 49.6 0.72 M3.02 54.3 C16.48 37.96, 30.25 19.07, 49.6 0.72 M6.44 62.57 C17.26 46.69, 28.82 37.51, 60.23 0.68 M6.44 62.57 C20.33 46.76, 31.14 31.7, 60.23 0.68 M13.13 67.06 C36.73 42.9, 57.72 19.47, 70.86 0.65 M13.13 67.06 C35.52 40.58, 58.44 16.33, 70.86 0.65 M23.76 67.03 C40.55 52.17, 58.87 29.98, 81.49 0.62 M23.76 67.03 C38.89 45.53, 58.29 26.38, 81.49 0.62 M34.39 67 C59.13 44.75, 79.73 18.42, 92.12 0.58 M34.39 67 C46.64 52.22, 60.61 35.97, 92.12 0.58 M45.02 66.96 C62.09 43.18, 81.26 21.73, 102.75 0.55 M45.02 66.96 C67.16 43.1, 86 18.82, 102.75 0.55 M55.65 66.93 C74.66 50.84, 92.73 30.38, 112.73 1.27 M55.65 66.93 C67.6 50.25, 80.79 39, 112.73 1.27 M66.28 66.89 C82.19 49.73, 101.46 27.1, 123.36 1.23 M66.28 66.89 C84.6 46.79, 102.78 25.49, 123.36 1.23 M76.91 66.86 C92.59 48.52, 106.7 30.02, 133.99 1.2 M76.91 66.86 C99.43 43.27, 121.55 17.8, 133.99 1.2 M87.54 66.82 C110.73 42.38, 125.23 24.6, 144.62 1.16 M87.54 66.82 C102.72 48.85, 116.07 35.48, 144.62 1.16 M98.17 66.79 C115.4 44.87, 129.9 31.71, 155.25 1.13 M98.17 66.79 C120.6 44.29, 137.06 21.98, 155.25 1.13 M108.8 66.75 C126.53 46.01, 142.64 25.63, 165.88 1.09 M108.8 66.75 C128.76 41.31, 151.39 18.08, 165.88 1.09 M118.77 67.47 C131.33 54.76, 146.51 36.36, 176.51 1.06 M118.77 67.47 C134.1 50.19, 150.6 28.45, 176.51 1.06 M129.41 67.44 C151.18 47.8, 169.85 26.87, 187.14 1.03 M129.41 67.44 C148.35 48.47, 162.55 30.44, 187.14 1.03 M140.04 67.41 C155.06 50.76, 171.27 27.99, 197.77 0.99 M140.04 67.41 C163.68 41.33, 187.08 16.26, 197.77 0.99 M150.67 67.37 C172.07 46.9, 188.19 23.47, 208.4 0.96 M150.67 67.37 C168.56 43.85, 189.57 19.65, 208.4 0.96 M161.3 67.34 C179.56 46.23, 191.96 31.27, 219.03 0.92 M161.3 67.34 C179.23 47.4, 197.01 26.96, 219.03 0.92 M171.93 67.3 C194.31 43.79, 212.33 18.59, 229.66 0.89 M171.93 67.3 C184.2 52.03, 202.07 35.49, 229.66 0.89 M182.56 67.27 C193.07 51.68, 208.69 42.26, 240.29 0.85 M182.56 67.27 C205.03 41.78, 225.14 20.24, 240.29 0.85 M193.19 67.23 C217.03 47.35, 234.61 17.94, 250.92 0.82 M193.19 67.23 C211.45 47.51, 229.06 26.77, 250.92 0.82 M203.82 67.2 C224.89 49.47, 243.36 21.52, 261.55 0.78 M203.82 67.2 C220.79 46.8, 238.43 26.65, 261.55 0.78 M214.45 67.16 C234.61 45.64, 249.68 21.73, 272.18 0.75 M214.45 67.16 C228.29 49.8, 245.93 30.6, 272.18 0.75 M225.08 67.13 C240.48 45.8, 260.64 23.33, 282.81 0.71 M225.08 67.13 C250 42.25, 272.12 17.69, 282.81 0.71 M235.71 67.09 C254.45 47.6, 276.63 23.68, 293.44 0.68 M235.71 67.09 C247.83 55.39, 258.41 40.47, 293.44 0.68 M246.34 67.06 C262.11 49.87, 278.63 25.84, 303.41 1.4 M246.34 67.06 C262.02 45.08, 277.95 28.14, 303.41 1.4 M256.97 67.03 C274.6 47.46, 284.99 36.9, 314.04 1.37 M256.97 67.03 C267.56 55.77, 279.65 40.45, 314.04 1.37 M267.6 66.99 C283.46 47.28, 304.58 28.96, 324.67 1.33 M267.6 66.99 C288.68 44.4, 310.71 18.57, 324.67 1.33 M278.23 66.96 C295.13 46.96, 313.29 27.52, 335.3 1.3 M278.23 66.96 C300.81 42.73, 322.58 15.26, 335.3 1.3 M288.86 66.92 C304.17 50.8, 313.43 36.85, 345.93 1.26 M288.86 66.92 C301.45 51.38, 319.73 31.14, 345.93 1.26 M299.49 66.89 C316.16 46.66, 340.09 24.19, 356.56 1.23 M299.49 66.89 C311.26 49.58, 327.6 35.65, 356.56 1.23 M309.46 67.61 C325.16 52.99, 337.77 28.79, 367.19 1.19 M309.46 67.61 C322.29 52.42, 332.88 41.54, 367.19 1.19 M320.09 67.57 C343.61 41.44, 365.05 16.75, 377.82 1.16 M320.09 67.57 C341.07 44.37, 362.1 20.5, 377.82 1.16 M330.72 67.54 C351.94 47.62, 365.16 23.3, 388.45 1.12 M330.72 67.54 C349.52 46.9, 368.01 22.01, 388.45 1.12 M341.35 67.5 C353.38 56.3, 364.4 44.73, 395.8 4.86 M341.35 67.5 C363.06 43.57, 380.84 21.69, 395.8 4.86 M351.98 67.47 C368.56 48.2, 388.65 21.53, 403.81 7.85 M351.98 67.47 C364.61 52.93, 376 38.5, 403.81 7.85 M362.61 67.44 C377.82 55.33, 385.41 42.91, 408.54 14.61 M362.61 67.44 C379.07 50.79, 394.78 30.01, 408.54 14.61 M373.24 67.4 C381.99 53.51, 389.07 47.24, 408.67 26.65 M373.24 67.4 C385.63 53.16, 397.19 37.61, 408.67 26.65 M383.87 67.37 C393.44 63.16, 394.18 53.51, 408.8 38.69 M383.87 67.37 C392.03 60.13, 397.09 51.63, 408.8 38.69 M391.22 71.11 C396.41 70.96, 400.83 64.26, 405 55.26 M391.22 71.11 C392.62 68.36, 395.77 64.16, 405 55.26" stroke="#a5d8ff" stroke-width="1" fill="none"></path><path d="M16.75 0 M16.75 0 C131.58 4.05, 248.19 4.11, 387.25 0 M16.75 0 C142.24 -1.26, 268.42 -1.45, 387.25 0 M387.25 0 C396.5 0.14, 401.33 8.04, 404 16.75 M387.25 0 C401.21 -0.19, 406.66 9.57, 404 16.75 M404 16.75 C402.06 21.24, 404.27 31.71, 404 50.25 M404 16.75 C403.02 25.14, 405.88 31.8, 404 50.25 M404 50.25 C401.11 58.29, 396.61 67.45, 387.25 67 M404 50.25 C407.17 58, 400.38 70.06, 387.25 67 M387.25 67 C301.93 70.1, 216.51 70.98, 16.75 67 M387.25 67 C291.61 67.96, 196.29 67.3, 16.75 67 M16.75 67 C5.81 67.59, -0.31 59.34, 0 50.25 M16.75 67 C10.07 64.86, 0.6 60.76, 0 50.25 M0 50.25 C-1.18 40.98, -3.74 37.29, 0 16.75 M0 50.25 C-1.51 41.94, -1.33 32.27, 0 16.75 M0 16.75 C0.5 6.33, 8.01 0.64, 16.75 0 M0 16.75 C-4.28 4.44, 6.99 1.64, 16.75 0" stroke="#1e1e1e" stroke-width="2" fill="none"></path></g><g transform="translate(216.35224236382362 26) rotate(0 37.86997985839844 17.5)"><text x="37.86997985839844" y="0" font-family="Virgil, Segoe UI Emoji" font-size="28px" fill="#1e1e1e" text-anchor="middle" style="white-space: pre;" direction="ltr" dominant-baseline="text-before-edge">Client</text></g><g mask="url(#mask-F7oyRqMZ0Lf7zHnrOXe3l)" stroke-linecap="round"><g transform="translate(162.87059704247372 277.8333333333333) rotate(0 0.5121561004239084 -100.33025193090239)"><path d="M-0.23 -1.14 C0.02 -21.73, 0.12 -90.79, 0.37 -123.85 C0.61 -156.91, 1.25 -186.94, 1.26 -199.52" stroke="#1971c2" stroke-width="2.5" fill="none" stroke-dasharray="8 10"></path></g><g transform="translate(162.87059704247372 277.8333333333333) rotate(0 0.5121561004239084 -100.33025193090239)"><path d="M9.35 -169.73 C9.91 -176.31, 7.78 -183.53, 2.14 -197.66" stroke="#1971c2" stroke-width="2.5" fill="none"></path></g><g transform="translate(162.87059704247372 277.8333333333333) rotate(0 0.5121561004239084 -100.33025193090239)"><path d="M-11.17 -169.92 C-6.43 -176.42, -4.38 -183.6, 2.14 -197.66" stroke="#1971c2" stroke-width="2.5" fill="none"></path></g></g><mask id="mask-F7oyRqMZ0Lf7zHnrOXe3l"><rect x="0" y="0" fill="#fff" width="264.2394781081565" height="577.6666666666665"></rect><rect x="78.7533620198567" y="118.61111111111109" fill="#000" width="167.15994262695312" height="70" opacity="1"></rect></mask><g transform="translate(78.7533620198567 118.61111111111114) rotate(0 84.62939112304093 58.891970291319836)"><text x="83.57997131347656" y="0" font-family="Virgil, Segoe UI Emoji" font-size="28px" fill="#1971c2" text-anchor="middle" style="white-space: pre;" direction="ltr" dominant-baseline="text-before-edge">(7) XX RPC </text><text x="83.57997131347656" y="35" font-family="Virgil, Segoe UI Emoji" font-size="28px" fill="#1971c2" text-anchor="middle" style="white-space: pre;" direction="ltr" dominant-baseline="text-before-edge">response</text></g><g mask="url(#mask-wcrD7UBgJDQTuPXnI0WDi)" stroke-linecap="round"><g transform="translate(362.83512314642803 82.50000000000011) rotate(0 -0.2772830203183503 101.0042624221079)"><path d="M0.53 -0.59 C0.56 10.55, 0.14 33.02, -0.12 66.89 C-0.39 100.75, -0.75 180.18, -1.08 202.6" stroke="#1971c2" stroke-width="2.5" fill="none" stroke-dasharray="8 10"></path></g><g transform="translate(362.83512314642803 82.50000000000011) rotate(0 -0.2772830203183503 101.0042624221079)"><path d="M-12.06 174.94 C-7.97 183.12, -4.25 189.07, -1.7 203.1" stroke="#1971c2" stroke-width="2.5" fill="none"></path></g><g transform="translate(362.83512314642803 82.50000000000011) rotate(0 -0.2772830203183503 101.0042624221079)"><path d="M8.46 175.13 C6.94 183.34, 5.07 189.25, -1.7 203.1" stroke="#1971c2" stroke-width="2.5" fill="none"></path></g></g><mask id="mask-wcrD7UBgJDQTuPXnI0WDi"><rect x="0" y="0" fill="#fff" width="464.59348018034325" height="384.27777777777777"></rect><rect x="282.49136098225904" y="114.16666666666669" fill="#000" width="159.68394470214844" height="70" opacity="1"></rect></mask><g transform="translate(282.49136098225904 114.16666666666663) rotate(0 80.06647914385064 69.33759575544133)"><text x="79.84197235107422" y="0" font-family="Virgil, Segoe UI Emoji" font-size="28px" fill="#1971c2" text-anchor="middle" style="white-space: pre;" direction="ltr" dominant-baseline="text-before-edge">(1) XX RPC </text><text x="79.84197235107422" y="35" font-family="Virgil, Segoe UI Emoji" font-size="28px" fill="#1971c2" text-anchor="middle" style="white-space: pre;" direction="ltr" dominant-baseline="text-before-edge">request</text></g><g mask="url(#mask-IVVMoPybQsW31yUdbccTZ)" stroke-linecap="round"><g transform="translate(432.9444444444448 364.2620381342546) rotate(0 -0.8053862829011109 199.00550248280922)"><path d="M0.3 0.92 C0.3 48.34, -0.71 218.73, -1.08 284.76 C-1.45 350.79, -1.72 378.47, -1.91 397.09" stroke="#f08c00" stroke-width="2.5" fill="none" stroke-dasharray="8 10"></path></g><g transform="translate(432.9444444444448 364.2620381342546) rotate(0 -0.8053862829011109 199.00550248280922)"><path d="M-10.37 369.88 C-9.99 373.85, -7.71 379.25, -2.95 398.83" stroke="#f08c00" stroke-width="2.5" fill="none"></path></g><g transform="translate(432.9444444444448 364.2620381342546) rotate(0 -0.8053862829011109 199.00550248280922)"><path d="M10.15 370.07 C6.23 374.06, 4.2 379.42, -2.95 398.83" stroke="#f08c00" stroke-width="2.5" fill="none"></path></g></g><mask id="mask-IVVMoPybQsW31yUdbccTZ"><rect x="0" y="0" fill="#fff" width="534.6666666666674" height="861.3888888888882"></rect><rect x="391.5322426689995" y="614.1666666666666" fill="#000" width="79.37995910644531" height="70" opacity="1"></rect></mask><g transform="translate(391.53224266899963 614.1666666666665) rotate(0 40.60681549254417 -50.89912604960284)"><text x="39.689979553222656" y="0" font-family="Virgil, Segoe UI Emoji" font-size="28px" fill="#f08c00" text-anchor="middle" style="white-space: pre;" direction="ltr" dominant-baseline="text-before-edge">(2.1) </text><text x="39.689979553222656" y="35" font-family="Virgil, Segoe UI Emoji" font-size="28px" fill="#f08c00" text-anchor="middle" style="white-space: pre;" direction="ltr" dominant-baseline="text-before-edge">Start</text></g><g transform="translate(501.5573933919261 63.88888888888897) rotate(0 300.77593994140625 35)"><text x="300.77593994140625" y="0" font-family="Virgil, Segoe UI Emoji" font-size="28px" fill="#1e1e1e" text-anchor="middle" style="white-space: pre;" direction="ltr" dominant-baseline="text-before-edge">Raft 仅提供一个 Start() 接口用来接收命令，</text><text x="300.77593994140625" y="35" font-family="Virgil, Segoe UI Emoji" font-size="28px" fill="#1e1e1e" text-anchor="middle" style="white-space: pre;" direction="ltr" dominant-baseline="text-before-edge">并在达成共识后发送 ApplyMsg 到 applyCh</text></g><g mask="url(#mask-o9A1mYKm636Z-kAO7I2xM)" stroke-linecap="round"><g transform="translate(290.88085401613034 818.4297907941859) rotate(0 -83.91251256892508 -11.023503280755449)"><path d="M0.72 -0.59 C-22.1 2.93, -107.73 28.77, -135.94 21.41 C-164.15 14.04, -163.16 -33.81, -168.55 -44.77" stroke="#e64980" stroke-width="2.5" fill="none" stroke-dasharray="8 10"></path></g><g transform="translate(290.88085401613034 818.4297907941859) rotate(0 -83.91251256892508 -11.023503280755449)"><path d="M-153.21 -18.95 C-156.65 -28.1, -165.48 -37.17, -168.55 -43.47" stroke="#e64980" stroke-width="2.5" fill="none"></path></g><g transform="translate(290.88085401613034 818.4297907941859) rotate(0 -83.91251256892508 -11.023503280755449)"><path d="M-173.21 -14.35 C-169.02 -25.37, -170.22 -36.2, -168.55 -43.47" stroke="#e64980" stroke-width="2.5" fill="none"></path></g></g><mask id="mask-o9A1mYKm636Z-kAO7I2xM"><rect x="0" y="0" fill="#fff" width="560.0305287159221" height="983.0409019052972"></rect><rect x="94.66358778211793" y="821.2222222222226" fill="#000" width="119.783935546875" height="35" opacity="1"></rect></mask><g transform="translate(94.66358778211793 821.2222222222226) rotate(0 112.30475366508733 -13.815934708792156)"><text x="59.8919677734375" y="0" font-family="Virgil, Segoe UI Emoji" font-size="28px" fill="#e64980" text-anchor="middle" style="white-space: pre;" direction="ltr" dominant-baseline="text-before-edge">(4) apply</text></g><g mask="url(#mask-HuAXBAi7CijivLu-apbwO)" stroke-linecap="round"><g transform="translate(132.8999234688048 701.1666666666665) rotate(0 -1.1001956406976205 -73.03137519235412)"><path d="M-0.29 -1.01 C-0.75 -11.96, -2.6 -40.95, -2.5 -64.96 C-2.4 -88.96, -0.27 -131.74, 0.3 -145.05" stroke="#9c36b5" stroke-width="2.5" fill="none" stroke-dasharray="8 10"></path></g><g transform="translate(132.8999234688048 701.1666666666665) rotate(0 -1.1001956406976205 -73.03137519235412)"><path d="M7.6 -117.91 C6.83 -125.97, 2.94 -134.11, 0.35 -144.42" stroke="#9c36b5" stroke-width="2.5" fill="none"></path></g><g transform="translate(132.8999234688048 701.1666666666665) rotate(0 -1.1001956406976205 -73.03137519235412)"><path d="M-12.9 -118.83 C-7.04 -126.55, -4.31 -134.39, 0.35 -144.42" stroke="#9c36b5" stroke-width="2.5" fill="none"></path></g></g><mask id="mask-HuAXBAi7CijivLu-apbwO"><rect x="0" y="0" fill="#fff" width="234.98327050342778" height="945.9999999999998"></rect><rect x="23.69826592339416" y="600.833333333333" fill="#000" width="215.17991638183594" height="70" opacity="1"></rect></mask><g transform="translate(23.69826592339416 600.833333333333) rotate(0 108.101461904713 27.301958140979366)"><text x="107.58995819091797" y="0" font-family="Virgil, Segoe UI Emoji" font-size="28px" fill="#9c36b5" text-anchor="middle" style="white-space: pre;" direction="ltr" dominant-baseline="text-before-edge">(5) execute Op,</text><text x="107.58995819091797" y="35" font-family="Virgil, Segoe UI Emoji" font-size="28px" fill="#9c36b5" text-anchor="middle" style="white-space: pre;" direction="ltr" dominant-baseline="text-before-edge">notify waitCh</text></g><g mask="url(#mask-1Uem9E9Ph0a6kj7vuONS_)" stroke-linecap="round"><g transform="translate(379.4720690648386 364.72222222222223) rotate(0 -80.30592603545875 93.53629617492078)"><path d="M0.49 -0.75 C-3.42 28.79, 4.13 148.82, -22.8 177 C-49.73 205.17, -138.02 169.61, -161.1 168.29" stroke="#f08c00" stroke-width="2.5" fill="none" stroke-dasharray="8 10"></path></g><g transform="translate(379.4720690648386 364.72222222222223) rotate(0 -80.30592603545875 93.53629617492078)"><path d="M-132.61 166.08 C-143.29 166.71, -154.4 167.76, -161.54 170.05" stroke="#f08c00" stroke-width="2.5" fill="none"></path></g><g transform="translate(379.4720690648386 364.72222222222223) rotate(0 -80.30592603545875 93.53629617492078)"><path d="M-137.07 186.11 C-146.12 179.57, -155.63 173.47, -161.54 170.05" stroke="#f08c00" stroke-width="2.5" fill="none"></path></g></g><mask id="mask-1Uem9E9Ph0a6kj7vuONS_"><rect x="0" y="0" fill="#fff" width="641.0552492407885" height="642.5"></rect><rect x="281.7606989542643" y="490" fill="#000" width="147.8119354248047" height="105" opacity="1"></rect></mask><g transform="translate(281.7606989542643 490) rotate(0 17.405444075115554 -31.74148160285705)"><text x="73.90596771240234" y="0" font-family="Virgil, Segoe UI Emoji" font-size="28px" fill="#f08c00" text-anchor="middle" style="white-space: pre;" direction="ltr" dominant-baseline="text-before-edge">(2.2) </text><text x="73.90596771240234" y="35" font-family="Virgil, Segoe UI Emoji" font-size="28px" fill="#f08c00" text-anchor="middle" style="white-space: pre;" direction="ltr" dominant-baseline="text-before-edge">Wait until </text><text x="73.90596771240234" y="70" font-family="Virgil, Segoe UI Emoji" font-size="28px" fill="#f08c00" text-anchor="middle" style="white-space: pre;" direction="ltr" dominant-baseline="text-before-edge">time out</text></g><g mask="url(#mask-gPRoRPKL5esOHXA88Z7Oi)" stroke-linecap="round"><g transform="translate(101.40922871625321 481.61111111111114) rotate(0 -0.7427070457940204 -60.97048163289821)"><path d="M-1.16 -0.63 C-3.73 -10.84, -19.34 -41.68, -16.58 -61.8 C-13.81 -81.91, 10.41 -111.54, 15.42 -121.31" stroke="#12b886" stroke-width="2.5" fill="none" stroke-dasharray="8 10"></path></g><g transform="translate(101.40922871625321 481.61111111111114) rotate(0 -0.7427070457940204 -60.97048163289821)"><path d="M7.75 -91.59 C11.37 -96.09, 11.7 -105.37, 16.89 -121.16" stroke="#12b886" stroke-width="2.5" fill="none"></path></g><g transform="translate(101.40922871625321 481.61111111111114) rotate(0 -0.7427070457940204 -60.97048163289821)"><path d="M-9.51 -102.69 C-2.37 -104.74, 1.52 -111.72, 16.89 -121.16" stroke="#12b886" stroke-width="2.5" fill="none"></path></g></g><mask id="mask-gPRoRPKL5esOHXA88Z7Oi"><rect x="0" y="0" fill="#fff" width="232.52033982736407" height="702.9444444444443"></rect><rect x="27.883573744032333" y="384.1666666666665" fill="#000" width="113.34396362304688" height="70" opacity="1"></rect></mask><g transform="translate(27.883573744032333 384.1666666666664) rotate(0 72.78294792642686 36.47396281154647)"><text x="56.67198181152344" y="0" font-family="Virgil, Segoe UI Emoji" font-size="28px" fill="#12b886" text-anchor="middle" style="white-space: pre;" direction="ltr" dominant-baseline="text-before-edge">(6) set </text><text x="56.67198181152344" y="35" font-family="Virgil, Segoe UI Emoji" font-size="28px" fill="#12b886" text-anchor="middle" style="white-space: pre;" direction="ltr" dominant-baseline="text-before-edge">reply</text></g><g mask="url(#mask-iTrfXXusBaOF_JyjB5YOy)" stroke-linecap="round"><g transform="translate(683.4444444444439 758.0555555555557) rotate(0 -0.773249949431829 -81.41497570267984)"><path d="M-0.12 -0.19 C-0.46 -27.49, -1.26 -135.74, -1.42 -162.64" stroke="#1e1e1e" stroke-width="2.5" fill="none" stroke-dasharray="8 10"></path></g><g transform="translate(683.4444444444439 758.0555555555557) rotate(0 -0.773249949431829 -81.41497570267984)"><path d="M8.72 -133.19 C4.42 -142.49, 2.47 -152.92, 0.29 -163.31" stroke="#1e1e1e" stroke-width="2.5" fill="none"></path></g><g transform="translate(683.4444444444439 758.0555555555557) rotate(0 -0.773249949431829 -81.41497570267984)"><path d="M-11.8 -133.05 C-8.95 -142.38, -3.74 -152.85, 0.29 -163.31" stroke="#1e1e1e" stroke-width="2.5" fill="none"></path></g></g><mask id="mask-iTrfXXusBaOF_JyjB5YOy"><rect x="0" y="0" fill="#fff" width="785.6666666666656" height="1020.2777777777778"></rect><rect x="648.9433568318682" y="659.4444444444446" fill="#000" width="66.77995300292969" height="35" opacity="1"></rect></mask><g transform="translate(648.9433568318682 659.4444444444446) rotate(0 33.72783766314387 17.196135408431246)"><text x="33.389976501464844" y="0" font-family="Virgil, Segoe UI Emoji" font-size="28px" fill="#1e1e1e" text-anchor="middle" style="white-space: pre;" direction="ltr" dominant-baseline="text-before-edge">apply</text></g><g mask="url(#mask-FMsmy8DzZUH-a77ELL2P6)" stroke-linecap="round"><g transform="translate(680.1111111111109 519.4705312582355) rotate(0 -0.6510401331853473 -75.62881106278962)"><path d="M-1.05 1.03 C-1.06 -24.24, -0.44 -126.75, -0.25 -152.28" stroke="#1e1e1e" stroke-width="2.5" fill="none" stroke-dasharray="8 10"></path></g><g transform="translate(680.1111111111109 519.4705312582355) rotate(0 -0.6510401331853473 -75.62881106278962)"><path d="M11.54 -124.45 C7.02 -132.03, 4.33 -142.07, 1.42 -153.07" stroke="#1e1e1e" stroke-width="2.5" fill="none"></path></g><g transform="translate(680.1111111111109 519.4705312582355) rotate(0 -0.6510401331853473 -75.62881106278962)"><path d="M-8.98 -124.58 C-7.68 -131.94, -4.55 -141.95, 1.42 -153.07" stroke="#1e1e1e" stroke-width="2.5" fill="none"></path></g></g><mask id="mask-FMsmy8DzZUH-a77ELL2P6"><rect x="0" y="0" fill="#fff" width="780.1111111111109" height="771.6927534804578"></rect><rect x="602.3131451076929" y="425.8594201471243" fill="#000" width="155.59593200683594" height="35" opacity="1"></rect></mask><g transform="translate(602.3131451076929 425.8594201471242) rotate(0 77.14692587023262 17.982300048321576)"><text x="77.79796600341797" y="0" font-family="Virgil, Segoe UI Emoji" font-size="28px" fill="#1e1e1e" text-anchor="middle" style="white-space: pre;" direction="ltr" dominant-baseline="text-before-edge">execute Op</text></g><g transform="translate(448.9245469835072 896.9444444444439) rotate(0 254.51989746093744 17.5)"><text x="254.5198974609375" y="0" font-family="Virgil, Segoe UI Emoji" font-size="28px" fill="#fa5252" text-anchor="middle" style="white-space: pre;" direction="ltr" dominant-baseline="text-before-edge">(3) wait until peers reach agreement</text></g><g stroke-linecap="round" transform="translate(906.8333333333328 525.3888888888885) rotate(0 82 33.5)"><path d="M4.46 3.88 C4.46 3.88, 4.46 3.88, 4.46 3.88 M4.46 3.88 C4.46 3.88, 4.46 3.88, 4.46 3.88 M3.94 16.67 C8.1 15.43, 10.74 6.54, 17.71 0.82 M3.94 16.67 C7.24 14.76, 12.04 9.26, 17.71 0.82 M4.07 28.71 C9.52 15.42, 24.05 7.28, 28.34 0.79 M4.07 28.71 C9.68 21.7, 18.81 14.76, 28.34 0.79 M4.2 40.75 C18.71 24.17, 24.16 15.98, 38.97 0.75 M4.2 40.75 C15.54 30.21, 24.14 18.84, 38.97 0.75 M1.71 55.81 C12.63 40.76, 22.84 27.19, 49.6 0.72 M1.71 55.81 C19.87 36.07, 37.86 11.59, 49.6 0.72 M5.78 63.33 C21.32 46.63, 30.15 36.57, 59.58 1.44 M5.78 63.33 C20.98 43.5, 39.57 21.96, 59.58 1.44 M11.82 68.57 C33.97 47.23, 53.42 20.81, 70.21 1.4 M11.82 68.57 C30.06 48.16, 47.07 31.43, 70.21 1.4 M22.45 68.54 C43.93 40.8, 62.7 21.62, 80.84 1.37 M22.45 68.54 C40.99 42.83, 63.64 18.22, 80.84 1.37 M33.08 68.5 C47.34 51.23, 56.12 35.74, 91.47 1.34 M33.08 68.5 C54.42 45.5, 75.91 21.79, 91.47 1.34 M43.71 68.47 C60.86 46.46, 80.26 23.96, 102.1 1.3 M43.71 68.47 C61.14 49.36, 76.79 33.06, 102.1 1.3 M54.34 68.44 C76.5 38.97, 98.26 20.97, 112.73 1.27 M54.34 68.44 C66.8 52.06, 83.65 38.62, 112.73 1.27 M64.97 68.4 C76.14 55.67, 92.7 40.37, 122.7 1.99 M64.97 68.4 C79.8 50.08, 94.36 37.25, 122.7 1.99 M74.94 69.12 C96.7 46.79, 121.04 21.92, 133.33 1.95 M74.94 69.12 C93.53 48.43, 110.05 27.99, 133.33 1.95 M85.57 69.09 C94.17 56.26, 107 41.24, 143.96 1.92 M85.57 69.09 C104.55 46.97, 123.62 22.86, 143.96 1.92 M96.2 69.05 C119.6 42.05, 136.8 22.47, 155.25 1.13 M96.2 69.05 C116.59 41.98, 137.25 21.49, 155.25 1.13 M106.83 69.02 C120.01 52.92, 135.08 36.04, 161.94 5.62 M106.83 69.02 C126.58 47.43, 141.39 28.52, 161.94 5.62 M117.46 68.98 C130.06 54.7, 143.68 43.98, 165.36 13.89 M117.46 68.98 C136.61 49.03, 154.3 26.34, 165.36 13.89 M128.09 68.95 C137.44 54.02, 151.11 46.97, 164.83 26.69 M128.09 68.95 C138.18 58.96, 147.94 48.1, 164.83 26.69 M138.72 68.91 C150.42 60.27, 153.09 49.48, 164.97 38.73 M138.72 68.91 C146.98 60.15, 154.94 47.23, 164.97 38.73 M149.35 68.88 C150.96 60.98, 159.15 54.17, 164.44 51.52 M149.35 68.88 C154.31 63.71, 157.59 61.39, 164.44 51.52" stroke="#b2f2bb" stroke-width="1" fill="none"></path><path d="M16.75 0 M16.75 0 C45.71 -1.96, 69.17 2.79, 147.25 0 M16.75 0 C66.54 1.57, 116.9 2.91, 147.25 0 M147.25 0 C158.38 3.74, 161.5 6.51, 164 16.75 M147.25 0 C156.95 -1.15, 166.29 9.55, 164 16.75 M164 16.75 C159.72 29.61, 160.15 39.86, 164 50.25 M164 16.75 C164.2 24.2, 164.92 31.8, 164 50.25 M164 50.25 C162.59 58.2, 157.59 69.9, 147.25 67 M164 50.25 C161.41 58.39, 159.64 67.47, 147.25 67 M147.25 67 C110.12 66.14, 72.37 66.51, 16.75 67 M147.25 67 C100.45 66.94, 55.47 66.8, 16.75 67 M16.75 67 C8.25 68.42, -0.44 64.03, 0 50.25 M16.75 67 C4.69 71.06, 2.35 63.59, 0 50.25 M0 50.25 C-0.36 46.85, -2.4 36.96, 0 16.75 M0 50.25 C-0.78 41.17, -1.18 28.95, 0 16.75 M0 16.75 C-0.13 7.83, 7.77 -1.04, 16.75 0 M0 16.75 C-4.3 2.07, 7.15 -2.12, 16.75 0" stroke="#1e1e1e" stroke-width="2" fill="none"></path></g><g transform="translate(939.5113652547195 541.3888888888885) rotate(0 49.32196807861328 17.5)"><text x="49.32196807861328" y="0" font-family="Virgil, Segoe UI Emoji" font-size="28px" fill="#1e1e1e" text-anchor="middle" style="white-space: pre;" direction="ltr" dominant-baseline="text-before-edge">applyCh</text></g><g stroke-linecap="round" transform="translate(908.0555555555554 296.50000000000017) rotate(0 82 33.5)"><path d="M4.46 3.88 C4.46 3.88, 4.46 3.88, 4.46 3.88 M4.46 3.88 C4.46 3.88, 4.46 3.88, 4.46 3.88 M3.94 16.67 C6.08 11.94, 6.32 12.59, 17.71 0.82 M3.94 16.67 C7.21 10.64, 12.8 7.02, 17.71 0.82 M4.07 28.71 C11.13 21.7, 17.39 8.41, 28.34 0.79 M4.07 28.71 C8.85 21.47, 14.05 17.54, 28.34 0.79 M4.2 40.75 C14.49 31.13, 18.09 21.74, 38.97 0.75 M4.2 40.75 C18.29 26.26, 30.95 12.05, 38.97 0.75 M1.71 55.81 C21.31 32.87, 41.28 14.12, 49.6 0.72 M1.71 55.81 C15.64 42.36, 30.25 24.99, 49.6 0.72 M5.78 63.33 C18.08 42.09, 37.82 25.71, 59.58 1.44 M5.78 63.33 C27.31 42.15, 46.56 18.69, 59.58 1.44 M11.82 68.57 C22.8 54.41, 37.24 37.43, 70.21 1.4 M11.82 68.57 C30.11 44.97, 49.72 22.71, 70.21 1.4 M22.45 68.54 C45.13 45.5, 62.31 20.55, 80.84 1.37 M22.45 68.54 C41.23 50.86, 58.95 30.64, 80.84 1.37 M33.08 68.5 C43.46 49.84, 57.2 41.88, 91.47 1.34 M33.08 68.5 C50.59 49.75, 69.52 27.74, 91.47 1.34 M43.71 68.47 C63.71 48.62, 82.79 25.89, 102.1 1.3 M43.71 68.47 C59.47 50.33, 74.52 31.88, 102.1 1.3 M54.34 68.44 C77.68 45.78, 101.22 18.66, 112.73 1.27 M54.34 68.44 C76.37 44.87, 93.37 24.76, 112.73 1.27 M64.97 68.4 C81.83 48.69, 95.39 37.05, 122.7 1.99 M64.97 68.4 C81.51 47.44, 97.06 31.3, 122.7 1.99 M74.94 69.12 C99.61 47.18, 113.25 24.75, 133.33 1.95 M74.94 69.12 C92.36 47.9, 109.38 27.4, 133.33 1.95 M85.57 69.09 C105.01 41.32, 130.27 17.88, 143.96 1.92 M85.57 69.09 C98.44 55.41, 112.7 38.53, 143.96 1.92 M96.2 69.05 C110.81 52.5, 127.64 27.61, 155.25 1.13 M96.2 69.05 C117.93 47.85, 137.48 25.64, 155.25 1.13 M106.83 69.02 C126.54 50.03, 138.12 33.32, 161.94 5.62 M106.83 69.02 C121.39 52.63, 136.55 33.13, 161.94 5.62 M117.46 68.98 C137.05 46.02, 157.61 26.08, 165.36 13.89 M117.46 68.98 C134.69 51.05, 149.16 31.96, 165.36 13.89 M128.09 68.95 C137.89 53.4, 153.02 35.94, 164.83 26.69 M128.09 68.95 C139.6 55.76, 148 45.75, 164.83 26.69 M138.72 68.91 C148.46 60.86, 156.76 51.36, 164.97 38.73 M138.72 68.91 C148.94 58.28, 156.94 46.84, 164.97 38.73 M149.35 68.88 C149.61 66.54, 159.53 63.15, 164.44 51.52 M149.35 68.88 C151.52 64.46, 156.37 63.15, 164.44 51.52" stroke="#ffec99" stroke-width="1" fill="none"></path><path d="M16.75 0 M16.75 0 C66.55 -4.24, 112.07 -0.53, 147.25 0 M16.75 0 C64.33 2.41, 109.11 -0.54, 147.25 0 M147.25 0 C158.17 -0.23, 164.65 8.03, 164 16.75 M147.25 0 C158.37 4.3, 161.13 6.65, 164 16.75 M164 16.75 C167.28 27.54, 160.79 34.77, 164 50.25 M164 16.75 C164.21 22.2, 164.08 30.91, 164 50.25 M164 50.25 C164.49 61.03, 160.35 66.53, 147.25 67 M164 50.25 C162.38 57.72, 157.46 70.34, 147.25 67 M147.25 67 C115.86 67.45, 85.37 71.3, 16.75 67 M147.25 67 C102.7 69.23, 62.71 66.79, 16.75 67 M16.75 67 C4.05 70.5, 0.57 64.63, 0 50.25 M16.75 67 C8.64 68.63, -0.51 64.42, 0 50.25 M0 50.25 C1.3 36.88, -3.46 31.55, 0 16.75 M0 50.25 C-0.48 40.97, 0.3 30.58, 0 16.75 M0 16.75 C-0.98 7.76, 3.8 -1.94, 16.75 0 M0 16.75 C-0.15 8.16, 8.1 -1.19, 16.75 0" stroke="#1e1e1e" stroke-width="2" fill="none"></path></g><g transform="translate(931.0455839369031 312.50000000000017) rotate(0 59.009971618652344 17.5)"><text x="59.009971618652344" y="0" font-family="Virgil, Segoe UI Emoji" font-size="28px" fill="#1e1e1e" text-anchor="middle" style="white-space: pre;" direction="ltr" dominant-baseline="text-before-edge">KVServer</text></g><g stroke-linecap="round" transform="translate(905.2777777777771 769.4444444444439) rotate(0 90 40)"><path d="M2.85 7.77 C2.85 7.77, 2.85 7.77, 2.85 7.77 M2.85 7.77 C2.85 7.77, 2.85 7.77, 2.85 7.77 M4.29 18.31 C8.53 13.69, 16.57 11.96, 20.04 0.19 M4.29 18.31 C7.54 11.32, 11.7 8.86, 20.04 0.19 M3.77 31.1 C13.45 21.7, 18.49 19.68, 30.67 0.16 M3.77 31.1 C13.69 22.09, 20.63 8.44, 30.67 0.16 M3.9 43.14 C16.75 32.04, 30.54 15.26, 41.3 0.12 M3.9 43.14 C17.46 27.46, 29.65 11.58, 41.3 0.12 M4.03 55.18 C17.75 38.58, 34.97 21.1, 51.93 0.09 M4.03 55.18 C15.24 44.52, 24.59 30.49, 51.93 0.09 M3.51 67.98 C24.36 38.37, 48.38 14.41, 61.9 0.81 M3.51 67.98 C16.57 54.05, 30.5 38.49, 61.9 0.81 M6.93 76.25 C23.87 60.57, 36.71 43.24, 72.53 0.77 M6.93 76.25 C27.44 53.35, 45.68 28.59, 72.53 0.77 M13.62 80.74 C36.75 50.3, 56.14 27.19, 83.16 0.74 M13.62 80.74 C31.25 65.62, 42.84 47.17, 83.16 0.74 M24.25 80.7 C40.22 62.09, 58.92 44.07, 93.79 0.71 M24.25 80.7 C48.81 49.64, 74.63 20.34, 93.79 0.71 M34.88 80.67 C55.05 58.67, 75.82 33.32, 104.42 0.67 M34.88 80.67 C56.03 55.09, 75.57 29.75, 104.42 0.67 M44.85 81.39 C73.63 48.24, 98.32 24.15, 115.05 0.64 M44.85 81.39 C72.87 49.6, 100.04 21.08, 115.05 0.64 M55.48 81.36 C83.45 55.72, 101.36 29.55, 125.03 1.36 M55.48 81.36 C83.11 51.35, 109.8 22.1, 125.03 1.36 M66.11 81.32 C88.71 56.81, 111.16 28.06, 135.66 1.32 M66.11 81.32 C83.47 59.06, 102.54 39.33, 135.66 1.32 M76.74 81.29 C94.6 56.78, 117.06 31.9, 146.29 1.29 M76.74 81.29 C91.33 63.22, 108.12 41.64, 146.29 1.29 M87.37 81.25 C112.86 54.26, 127.91 27.76, 156.92 1.25 M87.37 81.25 C113.94 50.65, 140.59 20.87, 156.92 1.25 M98 81.22 C113.78 61.63, 133.88 32.09, 167.55 1.22 M98 81.22 C119.28 57.39, 139.93 34.47, 167.55 1.22 M107.98 81.94 C131.23 58.27, 153.93 32.06, 174.24 5.71 M107.98 81.94 C122.39 63.02, 138.41 46.31, 174.24 5.71 M118.61 81.9 C141.06 59.99, 161.51 37.75, 180.93 10.21 M118.61 81.9 C140.54 57.66, 162.68 29.45, 180.93 10.21 M129.24 81.87 C147.66 61.03, 166.35 39.7, 183.69 19.23 M129.24 81.87 C141.84 65.97, 151.25 53.97, 183.69 19.23 M139.87 81.83 C154.14 71.65, 160.59 58.15, 183.82 31.27 M139.87 81.83 C158.18 62.16, 174.62 40.49, 183.82 31.27 M150.5 81.8 C159.37 67.67, 173.82 54.66, 183.3 44.06 M150.5 81.8 C161.11 68.02, 173.57 53.43, 183.3 44.06 M161.78 81.01 C165.89 72.16, 172.73 64.69, 183.43 56.11 M161.78 81.01 C166.33 76.31, 171.4 70.35, 183.43 56.11" stroke="#ffc9c9" stroke-width="1" fill="none"></path><path d="M20 0 M20 0 C65.54 0.15, 120.41 -1.27, 160 0 M20 0 C52.67 0.57, 87.4 0.32, 160 0 M160 0 C170.13 1.81, 177.16 8.78, 180 20 M160 0 C177.27 -3.18, 178.24 10.69, 180 20 M180 20 C182.06 32.13, 183.25 44.38, 180 60 M180 20 C178.43 34.1, 180.46 50.65, 180 60 M180 60 C183.33 70.46, 173.49 80.14, 160 80 M180 60 C181.98 71.09, 172.21 82.5, 160 80 M160 80 C126.47 82.1, 87.42 76.17, 20 80 M160 80 C126.75 77.96, 98.3 77.04, 20 80 M20 80 C4.45 82.78, -3.79 72.52, 0 60 M20 80 C4.25 76.82, 3.72 71.01, 0 60 M0 60 C-3.23 44.58, 0.52 35.68, 0 20 M0 60 C-2.28 42.96, 1.18 27.27, 0 20 M0 20 C2.81 7.23, 8.19 -2.4, 20 0 M0 20 C-0.6 6.58, 6.35 1.28, 20 0" stroke="#1e1e1e" stroke-width="2" fill="none"></path></g><g transform="translate(920.1118155585389 774.4444444444439) rotate(0 75.16596221923828 35)"><text x="75.16596221923828" y="0" font-family="Virgil, Segoe UI Emoji" font-size="28px" fill="#1e1e1e" text-anchor="middle" style="white-space: pre;" direction="ltr" dominant-baseline="text-before-edge">Raft </text><text x="75.16596221923828" y="35" font-family="Virgil, Segoe UI Emoji" font-size="28px" fill="#1e1e1e" text-anchor="middle" style="white-space: pre;" direction="ltr" dominant-baseline="text-before-edge">(Follower...)</text></g><g stroke-linecap="round" transform="translate(858.2222222222224 211.66666666666669) rotate(0 126.33333333333326 337.49999999999994)"><path d="M32 0 M32 0 C95.69 -1.6, 158.24 0.03, 220.67 0 M32 0 C99.96 -0.07, 169.22 1.74, 220.67 0 M220.67 0 C241.39 1.71, 250.93 9.99, 252.67 32 M220.67 0 C241.79 0.32, 252.53 9.9, 252.67 32 M252.67 32 C250.19 205.25, 250.05 378.96, 252.67 643 M252.67 32 C253.49 260.78, 253.29 489.23, 252.67 643 M252.67 643 C251.65 664.96, 241.2 673.39, 220.67 675 M252.67 643 C254.04 664.73, 242.48 673.93, 220.67 675 M220.67 675 C145.74 675.95, 72.81 674.12, 32 675 M220.67 675 C157.52 677.52, 95.73 676.89, 32 675 M32 675 C9.15 673.74, 1.91 663.68, 0 643 M32 675 C11.71 675.13, -0.05 664.41, 0 643 M0 643 C-0.83 426.17, -1.31 209.88, 0 32 M0 643 C-2.19 430.33, -1.62 217.13, 0 32 M0 32 C-1.88 10.41, 10.69 -1.54, 32 0 M0 32 C1.3 9.82, 11 0.3, 32 0" stroke="#1e1e1e" stroke-width="2" fill="none"></path></g><g transform="translate(883.4951366848416 229.9444444444445) rotate(0 53.11597442626953 17.5)"><text x="53.11597442626953" y="0" font-family="Virgil, Segoe UI Emoji" font-size="28px" fill="#e03131" text-anchor="middle" style="white-space: pre;" direction="ltr" dominant-baseline="text-before-edge">Follower</text></g><g mask="url(#mask-5fMnaKdPBcHTAY4jA5BTB)" stroke-linecap="round"><g transform="translate(992.0555555555554 760.9999999999995) rotate(0 -0.638675512290547 -80.97232044926949)"><path d="M0.34 0.76 C0.18 -26.37, -1.08 -135.38, -1.62 -162.7" stroke="#1e1e1e" stroke-width="2.5" fill="none" stroke-dasharray="8 10"></path></g><g transform="translate(992.0555555555554 760.9999999999995) rotate(0 -0.638675512290547 -80.97232044926949)"><path d="M10.32 -133.67 C5.6 -142.69, 2.11 -148.16, 0.35 -163.31" stroke="#1e1e1e" stroke-width="2.5" fill="none"></path></g><g transform="translate(992.0555555555554 760.9999999999995) rotate(0 -0.638675512290547 -80.97232044926949)"><path d="M-10.2 -133.36 C-9.85 -142.52, -8.26 -148.06, 0.35 -163.31" stroke="#1e1e1e" stroke-width="2.5" fill="none"></path></g></g><mask id="mask-5fMnaKdPBcHTAY4jA5BTB"><rect x="0" y="0" fill="#fff" width="1094.2777777777774" height="1023.2222222222217"></rect><rect x="957.55446794298" y="662.3888888888885" fill="#000" width="66.77995300292969" height="35" opacity="1"></rect></mask><g transform="translate(957.5544679429797 662.3888888888885) rotate(0 33.862412100285155 17.638790661841597)"><text x="33.389976501464844" y="0" font-family="Virgil, Segoe UI Emoji" font-size="28px" fill="#1e1e1e" text-anchor="middle" style="white-space: pre;" direction="ltr" dominant-baseline="text-before-edge">apply</text></g><g mask="url(#mask-mKLTtTdxwVORwBrptHT3l)" stroke-linecap="round"><g transform="translate(988.722222222222 522.4149757026796) rotate(0 -0.2358212546479308 -76.01413530103036)"><path d="M-0.67 -0.99 C-0.74 -26.08, 0.15 -126.01, 0.2 -151.04" stroke="#1e1e1e" stroke-width="2.5" fill="none" stroke-dasharray="8 10"></path></g><g transform="translate(988.722222222222 522.4149757026796) rotate(0 -0.2358212546479308 -76.01413530103036)"><path d="M8.66 -122.45 C8.85 -133.35, 5.05 -144.37, -0.47 -151.23" stroke="#1e1e1e" stroke-width="2.5" fill="none"></path></g><g transform="translate(988.722222222222 522.4149757026796) rotate(0 -0.2358212546479308 -76.01413530103036)"><path d="M-11.86 -122.57 C-4.49 -133.31, -1.1 -144.29, -0.47 -151.23" stroke="#1e1e1e" stroke-width="2.5" fill="none"></path></g></g><mask id="mask-mKLTtTdxwVORwBrptHT3l"><rect x="0" y="0" fill="#fff" width="1088.722222222222" height="774.6371979249019"></rect><rect x="910.9242562188037" y="428.8038645915684" fill="#000" width="155.59593200683594" height="35" opacity="1"></rect></mask><g transform="translate(910.9242562188037 428.8038645915684) rotate(0 77.56214474877004 17.596975810080835)"><text x="77.79796600341797" y="0" font-family="Virgil, Segoe UI Emoji" font-size="28px" fill="#1e1e1e" text-anchor="middle" style="white-space: pre;" direction="ltr" dominant-baseline="text-before-edge">execute Op</text></g><g mask="url(#mask-YtSziyHBwe5URbILZfm2Q)" stroke-linecap="round"><g transform="translate(211.22222222222217 510.27777777777777) rotate(0 33.020106866707465 -74.75477050021289)"><path d="M0.22 1.1 C8.09 -11.53, 37.32 -49.62, 48.25 -74.91 C59.19 -100.19, 62.82 -137.93, 65.82 -150.61" stroke="#f08c00" stroke-width="2.5" fill="none" stroke-dasharray="8 10"></path></g><g transform="translate(211.22222222222217 510.27777777777777) rotate(0 33.020106866707465 -74.75477050021289)"><path d="M72.82 -122.12 C68.02 -133.83, 65.79 -144.5, 64.18 -149.11" stroke="#f08c00" stroke-width="2.5" fill="none"></path></g><g transform="translate(211.22222222222217 510.27777777777777) rotate(0 33.020106866707465 -74.75477050021289)"><path d="M52.62 -125.71 C55.63 -136.08, 61.17 -145.37, 64.18 -149.11" stroke="#f08c00" stroke-width="2.5" fill="none"></path></g></g><mask id="mask-YtSziyHBwe5URbILZfm2Q"><rect x="0" y="0" fill="#fff" width="377.8888888888889" height="760.2777777777778"></rect><rect x="156.65115780300562" y="400.83333333333337" fill="#000" width="206.91990661621094" height="70" opacity="1"></rect></mask><g transform="translate(156.65115780300562 400.83333333333337) rotate(0 87.59117128592402 34.68967394423146)"><text x="103.45995330810547" y="0" font-family="Virgil, Segoe UI Emoji" font-size="28px" fill="#f08c00" text-anchor="middle" style="white-space: pre;" direction="ltr" dominant-baseline="text-before-edge">(2.3) return </text><text x="103.45995330810547" y="35" font-family="Virgil, Segoe UI Emoji" font-size="28px" fill="#f08c00" text-anchor="middle" style="white-space: pre;" direction="ltr" dominant-baseline="text-before-edge">Err if time out</text></g></svg>